HIERARCHY
ROOT Hips
{
	OFFSET 0.000000 100.481300 0.000000
	CHANNELS 6 Xposition Yposition Zposition Xrotation Yrotation Zrotation
	JOINT Spine
	{
		OFFSET -0.279200 12.230698 -2.892100
		CHANNELS 3 Xrotation Yrotation Zrotation
		JOINT Spine1
		{
			OFFSET -0.325700 14.269203 -3.374200
			CHANNELS 3 Xrotation Yrotation Zrotation
			JOINT Spine2
			{
				OFFSET -0.372300 16.307602 -0.352600
				CHANNELS 3 Xrotation Yrotation Zrotation
				JOINT Neck
				{
					OFFSET -0.418800 17.814194 8.416900
					CHANNELS 3 Xrotation Yrotation Zrotation
					JOINT Head
					{
						OFFSET 0.000000 7.031097 3.806800
						CHANNELS 3 Xrotation Yrotation Zrotation
						JOINT HeadTop_End
						{
							OFFSET 0.000000 24.646606 12.978600
							CHANNELS 3 Xrotation Yrotation Zrotation
							End Site
							{
								OFFSET 0.000000 27.854965 0.000000
							}
						}
					}
				}
				JOINT LeftShoulder
				{
					OFFSET 16.952999 14.495407 -7.737500
					CHANNELS 3 Xrotation Yrotation Zrotation
					JOINT LeftArm
					{
						OFFSET 9.308998 -2.777710 0.208600
						CHANNELS 3 Xrotation Yrotation Zrotation
						JOINT LeftForeArm
						{
							OFFSET 29.972298 0.000000 0.000000
							CHANNELS 3 Xrotation Yrotation Zrotation
							JOINT LeftHand
							{
								OFFSET 26.026505 0.000000 0.000000
								CHANNELS 3 Xrotation Yrotation Zrotation
								JOINT LeftHandThumb1
								{
									OFFSET 12.240501 -7.147949 9.207150
									CHANNELS 3 Xrotation Yrotation Zrotation
									JOINT LeftHandThumb2
									{
										OFFSET 4.138618 -2.389435 2.389433
										CHANNELS 3 Xrotation Yrotation Zrotation
										JOINT LeftHandThumb3
										{
											OFFSET 2.726913 -1.574387 1.574386
											CHANNELS 3 Xrotation Yrotation Zrotation
											JOINT LeftHandThumb4
											{
												OFFSET 3.941010 -2.275345 2.275342
												CHANNELS 3 Xrotation Yrotation Zrotation
												End Site
												{
													OFFSET -0.005798 5.087799 0.009903
												}
											}
										}
									}
								}
								JOINT LeftHandIndex1
								{
									OFFSET 24.424698 -1.985611 5.953459
									CHANNELS 3 Xrotation Yrotation Zrotation
									JOINT LeftHandIndex2
									{
										OFFSET 6.426697 0.000000 0.000000
										CHANNELS 3 Xrotation Yrotation Zrotation
										JOINT LeftHandIndex3
										{
											OFFSET 5.337898 0.000000 0.000000
											CHANNELS 3 Xrotation Yrotation Zrotation
											JOINT LeftHandIndex4
											{
												OFFSET 4.409401 0.000000 0.000000
												CHANNELS 3 Xrotation Yrotation Zrotation
												End Site
												{
													OFFSET 0.000000 4.409363 0.014373
												}
											}
										}
									}
								}
								JOINT LeftHandMiddle1
								{
									OFFSET 23.810104 0.000000 0.000000
									CHANNELS 3 Xrotation Yrotation Zrotation
									JOINT LeftHandMiddle2
									{
										OFFSET 7.176498 0.000000 0.000000
										CHANNELS 3 Xrotation Yrotation Zrotation
										JOINT LeftHandMiddle3
										{
											OFFSET 6.774902 0.000000 0.000000
											CHANNELS 3 Xrotation Yrotation Zrotation
											JOINT LeftHandMiddle4
											{
												OFFSET 5.403328 0.000000 0.000000
												CHANNELS 3 Xrotation Yrotation Zrotation
												End Site
												{
													OFFSET -0.027702 5.403244 0.017414
												}
											}
										}
									}
								}
								JOINT LeftHandRing1
								{
									OFFSET 22.908401 -0.839279 -6.020567
									CHANNELS 3 Xrotation Yrotation Zrotation
									JOINT LeftHandRing2
									{
										OFFSET 6.337502 0.000000 0.000000
										CHANNELS 3 Xrotation Yrotation Zrotation
										JOINT LeftHandRing3
										{
											OFFSET 5.779297 0.000000 0.000000
											CHANNELS 3 Xrotation Yrotation Zrotation
											JOINT LeftHandRing4
											{
												OFFSET 4.965698 0.000000 0.000000
												CHANNELS 3 Xrotation Yrotation Zrotation
												End Site
												{
													OFFSET 0.000000 4.965668 0.016186
												}
											}
										}
									}
								}
								JOINT LeftHandPinky1
								{
									OFFSET 20.037003 -1.530319 -10.950146
									CHANNELS 3 Xrotation Yrotation Zrotation
									JOINT LeftHandPinky2
									{
										OFFSET 5.254700 0.000000 0.000000
										CHANNELS 3 Xrotation Yrotation Zrotation
										JOINT LeftHandPinky3
										{
											OFFSET 4.810204 0.000000 0.000000
											CHANNELS 3 Xrotation Yrotation Zrotation
											JOINT LeftHandPinky4
											{
												OFFSET 3.647202 0.000000 0.000000
												CHANNELS 3 Xrotation Yrotation Zrotation
												End Site
												{
													OFFSET 0.000000 3.647186 0.011889
												}
											}
										}
									}
								}
							}
						}
					}
				}
				JOINT RightShoulder
				{
					OFFSET -15.141001 14.495407 -7.737500
					CHANNELS 3 Xrotation Yrotation Zrotation
					JOINT RightArm
					{
						OFFSET -9.308998 -2.777710 0.208500
						CHANNELS 3 Xrotation Yrotation Zrotation
						JOINT RightForeArm
						{
							OFFSET -29.972300 0.000000 0.000000
							CHANNELS 3 Xrotation Yrotation Zrotation
							JOINT RightHand
							{
								OFFSET -26.026505 0.000000 0.000000
								CHANNELS 3 Xrotation Yrotation Zrotation
								JOINT RightHandThumb1
								{
									OFFSET -12.240601 -7.148026 9.207092
									CHANNELS 3 Xrotation Yrotation Zrotation
									JOINT RightHandThumb2
									{
										OFFSET -4.138618 -2.389435 2.389433
										CHANNELS 3 Xrotation Yrotation Zrotation
										JOINT RightHandThumb3
										{
											OFFSET -2.726974 -1.574417 1.574421
											CHANNELS 3 Xrotation Yrotation Zrotation
											JOINT RightHandThumb4
											{
												OFFSET -3.941010 -2.275345 2.275343
												CHANNELS 3 Xrotation Yrotation Zrotation
												End Site
												{
													OFFSET 0.005814 5.087799 0.009927
												}
											}
										}
									}
								}
								JOINT RightHandIndex1
								{
									OFFSET -24.424698 -1.985657 5.953444
									CHANNELS 3 Xrotation Yrotation Zrotation
									JOINT RightHandIndex2
									{
										OFFSET -6.426697 0.000000 0.000000
										CHANNELS 3 Xrotation Yrotation Zrotation
										JOINT RightHandIndex3
										{
											OFFSET -5.337898 0.000000 0.000000
											CHANNELS 3 Xrotation Yrotation Zrotation
											JOINT RightHandIndex4
											{
												OFFSET -4.409401 0.000000 0.000000
												CHANNELS 3 Xrotation Yrotation Zrotation
												End Site
												{
													OFFSET 0.000000 4.409363 0.014408
												}
											}
										}
									}
								}
								JOINT RightHandMiddle1
								{
									OFFSET -23.810097 0.000000 0.000000
									CHANNELS 3 Xrotation Yrotation Zrotation
									JOINT RightHandMiddle2
									{
										OFFSET -7.176498 0.000000 0.000000
										CHANNELS 3 Xrotation Yrotation Zrotation
										JOINT RightHandMiddle3
										{
											OFFSET -6.774902 0.000000 0.000000
											CHANNELS 3 Xrotation Yrotation Zrotation
											JOINT RightHandMiddle4
											{
												OFFSET -5.403328 0.000000 0.000000
												CHANNELS 3 Xrotation Yrotation Zrotation
												End Site
												{
													OFFSET 0.027702 5.403244 0.017457
												}
											}
										}
									}
								}
								JOINT RightHandRing1
								{
									OFFSET -22.908302 -0.839325 -6.020576
									CHANNELS 3 Xrotation Yrotation Zrotation
									JOINT RightHandRing2
									{
										OFFSET -6.337502 0.000000 0.000000
										CHANNELS 3 Xrotation Yrotation Zrotation
										JOINT RightHandRing3
										{
											OFFSET -5.779297 0.000000 0.000000
											CHANNELS 3 Xrotation Yrotation Zrotation
											JOINT RightHandRing4
											{
												OFFSET -4.965698 0.000000 0.000000
												CHANNELS 3 Xrotation Yrotation Zrotation
												End Site
												{
													OFFSET 0.000000 4.965668 0.016226
												}
											}
										}
									}
								}
								JOINT RightHandPinky1
								{
									OFFSET -20.037003 -1.530334 -10.950259
									CHANNELS 3 Xrotation Yrotation Zrotation
									JOINT RightHandPinky2
									{
										OFFSET -5.254700 0.000000 0.000000
										CHANNELS 3 Xrotation Yrotation Zrotation
										JOINT RightHandPinky3
										{
											OFFSET -4.810204 0.000000 0.000000
											CHANNELS 3 Xrotation Yrotation Zrotation
											JOINT RightHandPinky4
											{
												OFFSET -3.647202 0.000000 0.000000
												CHANNELS 3 Xrotation Yrotation Zrotation
												End Site
												{
													OFFSET 0.000000 3.647186 0.011917
												}
											}
										}
									}
								}
							}
						}
					}
				}
			}
		}
	}
	JOINT LeftUpLeg
	{
		OFFSET 15.427100 -6.655098 0.678600
		CHANNELS 3 Xrotation Yrotation Zrotation
		JOINT LeftLeg
		{
			OFFSET 4.081073 -39.591068 13.024000
			CHANNELS 3 Xrotation Yrotation Zrotation
			JOINT LeftFoot
			{
				OFFSET -4.081074 -37.707932 -15.979700
				CHANNELS 3 Xrotation Yrotation Zrotation
				JOINT LeftToeBase
				{
					OFFSET 5.346399 -15.068900 20.645000
					CHANNELS 3 Xrotation Yrotation Zrotation
					JOINT LeftToe_End
					{
						OFFSET 2.754700 0.931300 11.300900
						CHANNELS 3 Xrotation Yrotation Zrotation
						End Site
						{
							OFFSET 0.000000 11.669021 0.000000
						}
					}
				}
			}
		}
	}
	JOINT RightUpLeg
	{
		OFFSET -15.569500 -6.655098 0.678600
		CHANNELS 3 Xrotation Yrotation Zrotation
		JOINT RightLeg
		{
			OFFSET -4.081825 -39.591045 13.023800
			CHANNELS 3 Xrotation Yrotation Zrotation
			JOINT RightFoot
			{
				OFFSET 4.081824 -37.707954 -15.979600
				CHANNELS 3 Xrotation Yrotation Zrotation
				JOINT RightToeBase
				{
					OFFSET -5.346400 -15.068900 20.645000
					CHANNELS 3 Xrotation Yrotation Zrotation
					JOINT RightToe_End
					{
						OFFSET -2.754700 0.931300 11.300900
						CHANNELS 3 Xrotation Yrotation Zrotation
						End Site
						{
							OFFSET 0.000000 11.669021 0.000000
						}
					}
				}
			}
		}
	}
}
MOTION
Frames: 4
Frame Time: 0.033333
2.195315 72.838882 -1.714857 -5.400171 -46.432125 -0.526724 9.420049 7.435554 -1.366634 2.187716 0.989895 -0.915630 2.202828 0.982775 -0.894152 0.084653 13.220556 4.538680 8.920926 20.138145 -4.130235 0.000002 0.000000 0.000000 1.117178 3.546352 -8.633309 -53.487010 4.935501 -51.503004 0.000260 -106.358080 0.000269 1.988610 -7.706152 -15.869262 -6.141225 -11.690802 -6.761683 9.914108 42.595515 3.409865 -0.422815 8.108102 27.509108 -0.000002 -0.000002 -0.000001 0.255311 3.378217 -45.814341 5.654091 5.847757 -88.067448 2.162145 4.544808 -50.866386 -0.000001 0.000003 -0.000006 -0.461474 3.841595 -39.722666 6.450749 5.820361 -95.892871 2.182893 4.561574 -51.127740 0.000000 0.000000 -0.000000 0.469719 4.966833 -39.799444 8.181043 5.368613 -113.503018 3.200487 5.218113 -63.022982 -0.000001 0.000001 0.000001 -3.762437 9.063690 -45.253828 5.342538 5.829003 -85.005317 8.716836 5.103329 -119.369181 -0.000000 0.000001 -0.000001 3.036126 13.027203 -5.371408 -48.713715 27.172830 83.457077 -0.000022 105.988280 0.000029 -8.345363 17.548102 8.775659 -7.341102 13.749654 7.412325 9.855799 -44.489083 -3.903267 -0.115779 -14.513086 -28.973854 0.000001 0.000000 -0.000001 -0.124375 -2.384785 45.108857 4.500583 -4.654538 88.071157 1.723214 -3.618379 50.920112 -0.000001 -0.000000 -0.000002 -0.761624 -2.932904 39.031055 5.133883 -4.632756 95.881663 1.739742 -3.631699 51.181336 -0.000000 -0.000000 0.000004 0.154762 -4.068816 39.122664 6.509727 -4.273595 113.462891 2.549588 -4.153924 63.067337 -0.000002 0.000000 -0.000000 -4.198880 -8.025514 44.637769 4.252918 -4.639645 85.014805 6.935967 -4.062624 119.322285 -0.000000 0.000000 -0.000001 -34.255772 5.085959 20.300661 56.771798 -7.633910 3.672748 -20.132780 -7.078602 -17.222807 -1.594029 -0.000002 -0.000004 -0.000000 -0.000002 -0.000000 -19.408312 -8.979632 -34.668162 57.007791 -2.876870 -4.765895 -26.306270 -10.338062 26.247742 -0.013021 -0.000029 0.000001 -0.000000 0.000001 -0.000000 
2.350480 71.635429 -1.823645 -6.676642 -45.462750 -2.607248 11.260743 7.106614 -1.274529 2.547749 0.956126 -0.808474 2.562008 0.949170 -0.789365 1.277833 12.567771 4.240176 7.739300 20.301177 -3.676759 0.000001 0.000000 0.000000 0.637281 2.145090 -7.630703 -52.695958 7.263350 -52.412734 -0.000046 -106.630919 -0.000055 1.388933 -7.380918 -12.073020 -6.141223 -11.690801 -6.761684 9.914117 42.595512 3.409869 -0.422809 8.108101 27.509116 -0.000002 -0.000000 -0.000000 0.255310 3.378216 -45.814344 5.654089 5.847755 -88.067455 2.162143 4.544807 -50.866386 -0.000001 -0.000001 0.000000 -0.461473 3.841593 -39.722669 6.450746 5.820361 -95.892871 2.182897 4.561572 -51.127746 0.000000 -0.000002 -0.000005 0.469720 4.966832 -39.799444 8.181043 5.368614 -113.503025 3.200486 5.218112 -63.022975 0.000001 -0.000000 0.000000 -3.762437 9.063689 -45.253825 5.342536 5.829004 -85.005317 8.716839 5.103327 -119.369181 0.000001 0.000000 -0.000000 3.617681 13.735104 -5.127409 -48.619629 28.014328 82.777945 0.000016 103.258185 -0.000010 -6.095826 20.048501 4.914351 -7.341098 13.749658 7.412324 9.855796 -44.489086 -3.903265 -0.115779 -14.513088 -28.973864 -0.000000 0.000000 -0.000001 -0.124373 -2.384783 45.108857 4.500582 -4.654538 88.071150 1.723217 -3.618380 50.920109 0.000000 -0.000000 0.000002 -0.761623 -2.932906 39.031058 5.133885 -4.632757 95.881663 1.739742 -3.631699 51.181340 -0.000001 0.000003 0.000001 0.154763 -4.068815 39.122664 6.509732 -4.273594 113.462891 2.549588 -4.153922 63.067337 0.000001 0.000002 -0.000001 -4.198878 -8.025513 44.637766 4.252918 -4.639645 85.014798 6.935968 -4.062625 119.322271 0.000000 0.000000 -0.000000 -35.635238 4.032923 21.349551 59.391596 -8.723325 4.116517 -20.613844 -7.097352 -16.812827 -1.594029 -0.000002 -0.000004 -0.000000 -0.000002 -0.000000 -18.437705 -9.712409 -34.485652 58.344309 -2.377254 -4.012462 -27.257489 -10.559727 26.083666 -0.014557 -0.000023 -0.000002 -0.000000 0.000000 -0.000001 
2.498253 70.592224 -1.750554 -7.813176 -43.952940 -4.541620 12.965199 6.919536 -0.937282 2.891550 0.967428 -0.652882 2.905002 0.960790 -0.636950 2.473995 11.804390 3.960823 6.314592 20.237384 -3.322143 0.000003 0.000000 -0.000001 -0.018356 1.531363 -6.119714 -51.995949 10.440175 -54.357859 0.000045 -108.392384 0.000054 0.164883 -6.904517 -8.270176 -6.141225 -11.690799 -6.761685 9.914105 42.595508 3.409870 -0.422812 8.108099 27.509113 0.000001 -0.000001 0.000003 0.255310 3.378215 -45.814348 5.654091 5.847758 -88.067455 2.162143 4.544808 -50.866393 0.000001 0.000003 -0.000000 -0.461473 3.841593 -39.722673 6.450747 5.820360 -95.892871 2.182896 4.561576 -51.127743 0.000001 -0.000002 0.000003 0.469719 4.966832 -39.799444 8.181044 5.368612 -113.503018 3.200487 5.218113 -63.022982 0.000001 -0.000002 0.000002 -3.762438 9.063687 -45.253825 5.342547 5.829004 -85.005311 8.716839 5.103331 -119.369181 0.000004 0.000001 -0.000000 4.433575 14.882482 -4.785582 -48.676829 29.804360 81.232676 0.000139 100.294450 -0.000149 -3.644859 22.286958 0.181928 -7.341098 13.749657 7.412323 9.855799 -44.489086 -3.903260 -0.115783 -14.513090 -28.973857 0.000001 -0.000003 0.000001 -0.124373 -2.384785 45.108857 4.500583 -4.654537 88.071150 1.723214 -3.618376 50.920112 -0.000001 0.000000 -0.000000 -0.761622 -2.932906 39.031058 5.133886 -4.632753 95.881663 1.739742 -3.631700 51.181340 -0.000000 -0.000001 0.000001 0.154762 -4.068818 39.122668 6.509730 -4.273598 113.462884 2.549586 -4.153921 63.067337 0.000000 0.000001 -0.000001 -4.198879 -8.025516 44.637766 4.252918 -4.639645 85.014805 6.935970 -4.062625 119.322271 0.000002 0.000000 -0.000000 -37.071651 2.958750 21.852640 61.870415 -9.824131 4.793540 -20.923683 -7.235793 -16.193550 -1.594029 -0.000002 -0.000004 -0.000000 -0.000002 -0.000000 -16.909998 -10.882779 -34.418682 59.133217 -2.038136 -3.234430 -28.070228 -10.854330 26.207117 -0.015161 -0.000004 0.000003 0.000000 -0.000001 0.000000 
2.619894 69.978340 -1.513083 -8.323455 -41.894888 -5.865723 14.412707 7.066386 -0.480393 3.210326 1.081477 -0.470046 3.223030 1.075650 -0.459091 3.670967 10.899655 3.718183 4.533693 19.725132 -2.773362 -0.000000 0.000000 0.000001 -0.701078 1.058269 -4.307763 -51.698853 14.956846 -55.888918 -0.000003 -112.376631 0.000008 -1.791195 -6.048809 -3.989367 -6.141226 -11.690800 -6.761682 9.914113 42.595512 3.409870 -0.422813 8.108096 27.509109 0.000001 -0.000002 0.000003 0.255309 3.378217 -45.814348 5.654095 5.847754 -88.067455 2.162143 4.544811 -50.866389 0.000000 -0.000001 0.000001 -0.461475 3.841594 -39.722669 6.450749 5.820362 -95.892878 2.182894 4.561574 -51.127743 0.000001 0.000002 -0.000000 0.469719 4.966829 -39.799444 8.181045 5.368612 -113.503018 3.200487 5.218114 -63.022975 -0.000002 0.000000 0.000000 -3.762439 9.063691 -45.253825 5.342543 5.829006 -85.005317 8.716835 5.103328 -119.369194 -0.000001 -0.000001 0.000000 5.502101 16.589233 -4.465272 -49.129517 32.130856 78.995079 -0.000189 97.651570 0.000175 -0.779168 24.337371 -5.101725 -7.341100 13.749656 7.412324 9.855796 -44.489086 -3.903258 -0.115781 -14.513085 -28.973857 0.000000 -0.000000 -0.000001 -0.124374 -2.384783 45.108857 4.500581 -4.654542 88.071150 1.723211 -3.618377 50.920116 -0.000000 -0.000000 0.000000 -0.761624 -2.932908 39.031058 5.133887 -4.632754 95.881663 1.739741 -3.631698 51.181340 -0.000001 -0.000002 0.000000 0.154762 -4.068817 39.122671 6.509730 -4.273594 113.462891 2.549587 -4.153922 63.067337 0.000001 0.000000 -0.000000 -4.198880 -8.025514 44.637766 4.252918 -4.639645 85.014798 6.935967 -4.062624 119.322285 -0.000001 -0.000000 -0.000000 -38.465303 1.631308 22.000743 63.540259 -9.414892 5.469032 -21.061360 -8.877695 -16.334092 -1.594029 -0.000000 -0.000004 -0.000000 -0.000000 -0.000000 -14.936290 -12.401150 -34.206923 59.040428 -2.089371 -2.522095 -28.518068 -11.395501 26.674546 -0.014859 -0.000014 -0.000009 -0.000000 -0.000001 0.000000 
